HIERARCHY
ROOT Hips
{
	OFFSET -0.001795 -0.223333 0.028219
	CHANNELS 6 Xposition Yposition Zposition Zrotation Yrotation Xrotation 
	JOINT LeftUpLeg
	{
		OFFSET 0.069520 -0.091406 -0.006815
		CHANNELS 3 Zrotation Yrotation Xrotation
		JOINT LeftLeg
		{
			OFFSET 0.034277 -0.375199 -0.004496
			CHANNELS 3 Zrotation Yrotation Xrotation
			JOINT LeftFoot
			{
				OFFSET -0.013596 -0.397961 -0.043693
				CHANNELS 3 Zrotation Yrotation Xrotation
				JOINT LeftToe
				{
					OFFSET 0.026358 -0.055791 0.119288
					CHANNELS 3 Zrotation Yrotation Xrotation
					End Site
					{
						OFFSET 0.000000 0.000000 0.000000
					}
				}
			}
		}
	}
	JOINT RightUpLeg
	{
		OFFSET -0.067670 -0.090522 -0.004320
		CHANNELS 3 Zrotation Yrotation Xrotation
		JOINT RightLeg
		{
			OFFSET -0.038290 -0.382569 -0.008850
			CHANNELS 3 Zrotation Yrotation Xrotation
			JOINT RightFoot
			{
				OFFSET 0.015774 -0.398415 -0.042312
				CHANNELS 3 Zrotation Yrotation Xrotation
				JOINT RightToe
				{
					OFFSET -0.025372 -0.048144 0.123348
					CHANNELS 3 Zrotation Yrotation Xrotation
					End Site
					{
						OFFSET 0.000000 0.000000 0.000000
					}
				}
			}
		}
	}
	JOINT Spine
	{
		OFFSET -0.002533 0.108963 -0.026696
		CHANNELS 3 Zrotation Yrotation Xrotation
		JOINT Spine1
		{
			OFFSET 0.005487 0.135180 0.001092
			CHANNELS 3 Zrotation Yrotation Xrotation
			JOINT Spine2
			{
				OFFSET 0.001457 0.052922 0.025425
				CHANNELS 3 Zrotation Yrotation Xrotation
				JOINT Neck
				{
					OFFSET -0.002778 0.213870 -0.042857
					CHANNELS 3 Zrotation Yrotation Xrotation
					JOINT Head
					{
						OFFSET 0.005152 0.064970 0.051349
						CHANNELS 3 Zrotation Yrotation Xrotation
						End Site
						{
							OFFSET 0.000000 0.000000 0.000000
						}
					}
				}
				JOINT LeftShoulder
				{
					OFFSET 0.078845 0.121749 -0.034090
					CHANNELS 3 Zrotation Yrotation Xrotation
					JOINT LeftArm
					{
						OFFSET 0.090977 0.030469 -0.008868
						CHANNELS 3 Zrotation Yrotation Xrotation
						JOINT LeftForeArm
						{
							OFFSET 0.259612 -0.012772 -0.027456
							CHANNELS 3 Zrotation Yrotation Xrotation
							JOINT LeftHand
							{
								OFFSET 0.249234 0.008986 -0.001171
								CHANNELS 3 Zrotation Yrotation Xrotation
								End Site
								{
									OFFSET 0.000000 0.000000 0.000000
								}
							}
						}
					}
				}
				JOINT RightShoulder
				{
					OFFSET -0.081759 0.118833 -0.038615
					CHANNELS 3 Zrotation Yrotation Xrotation
					JOINT RightArm
					{
						OFFSET -0.096012 0.032551 -0.009143
						CHANNELS 3 Zrotation Yrotation Xrotation
						JOINT RightForeArm
						{
							OFFSET -0.253742 -0.013329 -0.021401
							CHANNELS 3 Zrotation Yrotation Xrotation
							JOINT RightHand
							{
								OFFSET -0.255298 0.007772 -0.005559
								CHANNELS 3 Zrotation Yrotation Xrotation
								End Site
								{
									OFFSET 0.000000 0.000000 0.000000
								}
							}
						}
					}
				}
			}
		}
	}
}
MOTION
Frames: 13
Frame Time: 0.050000
-0.253475 0.938844 2.209387 -3.008356 -15.246908 -7.641631 4.046645 -0.306616 -26.537030 -5.061893 3.848586 38.818131 3.152206 7.238259 4.335432 0.000000 0.000000 0.000000 0.177168 -0.671568 9.386204 5.828067 3.775204 55.790733 1.659866 -4.055679 14.558465 0.000000 0.000000 0.000000 -12.401288 3.417716 29.982938 17.557599 -1.012293 -38.352863 8.096133 18.788807 36.466169 1.299834 3.431966 -33.639136 0.000000 0.000000 0.000000 -39.229181 10.051326 -16.328722 -27.750455 20.964722 -8.041348 -18.976601 -38.349493 7.871428 0.000000 0.000000 0.000000 28.745037 8.866460 8.371684 36.274787 30.257281 0.780859 20.194361 70.797421 21.355311 0.000000 0.000000 0.000000 
-0.257603 0.914015 2.271266 -2.888722 -11.816005 -8.881893 1.559339 -1.216995 -24.379984 -2.507465 2.372867 44.138066 2.832117 5.646343 -1.135037 0.000000 0.000000 0.000000 -0.561439 0.298384 -3.031155 12.837997 -1.022636 83.102933 -2.552208 -10.788067 16.446099 0.000000 0.000000 0.000000 -12.435912 3.490643 33.175071 17.166415 -1.588748 -36.583997 6.240626 16.190695 32.961679 1.963764 2.899322 -34.888503 0.000000 0.000000 0.000000 -41.723986 8.010899 -15.346856 -26.589937 12.937039 -6.022547 -19.308003 -40.448980 8.483807 0.000000 0.000000 0.000000 31.220260 8.052886 7.831884 37.587154 23.812870 -0.755456 16.107262 66.855623 16.585121 0.000000 0.000000 0.000000 
-0.261763 0.904821 2.327625 -3.527398 -8.534109 -11.165771 0.798784 -1.402107 -20.185910 -1.721374 1.322199 47.666458 3.178784 5.837931 -3.157742 0.000000 0.000000 0.000000 -0.943868 1.892753 -17.960349 16.060457 -11.112441 106.812057 -5.851982 -15.768628 16.350143 0.000000 0.000000 0.000000 -11.305191 3.225610 37.959893 17.497868 -1.511247 -38.017479 4.624119 13.373632 33.912815 1.578407 3.052906 -38.639209 0.000000 0.000000 0.000000 -44.274819 4.400834 -12.659404 -26.448806 4.214221 -4.535914 -14.379951 -45.375547 7.649722 0.000000 0.000000 0.000000 33.714327 8.159764 7.998532 36.801086 19.250662 -2.272704 6.005223 58.095150 7.723256 0.000000 0.000000 0.000000 
-0.266865 0.914218 2.386343 -4.337400 -5.977231 -13.669382 0.119435 -1.193440 -14.173653 -0.801762 0.001936 47.786965 2.270288 3.319388 -4.328435 0.000000 0.000000 0.000000 -4.169998 2.811573 -33.116731 16.465906 -21.022678 120.257783 -7.856312 -19.254895 9.007952 0.000000 0.000000 0.000000 -8.608346 2.138085 42.099777 16.278035 -0.804118 -42.064009 3.284574 9.175170 37.634289 0.545949 3.108982 -39.828276 0.000000 0.000000 0.000000 -43.999412 2.236679 -8.780972 -28.582488 -1.690442 -4.464566 -12.535100 -54.157012 8.727256 0.000000 0.000000 0.000000 34.602964 7.724583 6.841785 36.384408 13.179741 -4.028053 5.080839 54.922123 6.326079 0.000000 0.000000 0.000000 
-0.273341 0.934476 2.448760 -5.944876 -3.189805 -15.741336 1.630493 -0.434668 -6.280940 -0.531342 -1.015460 44.066449 1.002295 1.574382 -1.329799 0.000000 0.000000 0.000000 -7.883313 2.143146 -46.515333 17.390698 -26.524508 119.984268 -9.669493 -23.452805 3.008612 0.000000 0.000000 0.000000 -5.104654 0.325193 44.528151 15.912083 -0.575726 -43.972344 0.968760 5.791076 37.656168 0.128839 2.896690 -38.080868 0.000000 0.000000 0.000000 -43.172246 2.741634 -7.791348 -29.738989 -4.248991 -4.471754 -15.002615 -62.730859 12.167088 0.000000 0.000000 0.000000 34.412442 6.262973 5.038563 35.441174 7.550849 -5.273505 8.515785 54.544099 7.713291 0.000000 0.000000 0.000000 
-0.280498 0.955005 2.513439 -7.706619 -0.430841 -16.605830 3.935471 0.137283 1.302001 -0.555447 -1.518552 39.011474 -0.548847 -1.010770 0.309808 0.000000 0.000000 0.000000 -11.297848 -0.062478 -55.069868 21.307128 -27.679924 105.091833 -9.914537 -24.025511 2.324543 0.000000 0.000000 0.000000 -2.410613 -1.332667 45.281577 16.576839 -0.652991 -44.623129 -0.690567 3.633189 36.912948 -1.338339 3.501580 -36.072735 0.000000 0.000000 0.000000 -42.833125 3.106495 -7.685821 -30.781079 -6.236145 -4.215902 -16.449676 -65.274923 13.833953 0.000000 0.000000 0.000000 32.804561 3.521762 2.786772 36.133260 2.654346 -6.497741 13.885592 52.983402 10.111878 0.000000 0.000000 0.000000 
-0.288914 0.962433 2.578116 -8.718939 1.054833 -17.002094 6.731762 0.229994 6.028915 -0.925909 -1.577099 37.506981 -2.350940 -4.029161 1.653955 0.000000 0.000000 0.000000 -12.495191 -1.340725 -57.634476 24.168964 -22.913169 83.467383 -9.001381 -21.505127 7.749988 0.000000 0.000000 0.000000 -1.446940 -2.031336 44.880738 17.476084 -1.063635 -43.112067 -1.087956 2.464406 34.272429 -1.372026 3.365789 -32.670502 0.000000 0.000000 0.000000 -42.623114 3.471825 -7.918591 -31.304804 -6.886114 -3.979104 -23.532245 -67.094522 19.113620 0.000000 0.000000 0.000000 33.162214 1.838052 1.310627 35.038970 -1.488605 -7.063695 15.392155 53.699455 10.832299 0.000000 0.000000 0.000000 
-0.298997 0.953868 2.643431 -8.807261 1.286622 -16.900790 7.951861 0.207982 10.097069 0.072105 -2.006283 36.559349 -3.143191 -6.471162 0.447791 0.000000 0.000000 0.000000 -11.445841 -0.812142 -56.564827 23.303465 -16.739888 66.628648 -6.072688 -16.146933 14.197912 0.000000 0.000000 0.000000 -1.974705 -1.826982 44.039723 20.758572 -1.434555 -43.329523 -3.379063 3.907562 34.356672 -0.982235 3.425223 -32.105646 0.000000 0.000000 0.000000 -40.957097 3.033284 -7.947439 -32.349410 -7.759962 -3.784395 -32.142850 -69.120284 25.868593 0.000000 0.000000 0.000000 34.381833 1.395139 1.665710 35.470789 -3.127629 -7.799608 13.594415 54.955541 10.460427 0.000000 0.000000 0.000000 
-0.311152 0.927327 2.709998 -8.569131 3.122828 -17.668678 8.698333 0.056423 13.322284 0.403935 -2.564060 37.994732 -3.993013 -7.683416 1.277108 0.000000 0.000000 0.000000 -9.223031 -0.205137 -54.451332 20.300472 -14.455243 64.424045 -5.195111 -14.491473 14.054607 0.000000 0.000000 0.000000 -0.966294 -2.328787 41.783751 18.812793 -1.970846 -39.604391 -4.174284 2.545704 31.332551 -0.932634 3.232557 -30.459004 0.000000 0.000000 0.000000 -41.218487 1.392084 -6.718248 -30.587625 -8.595047 -3.209946 -39.800281 -70.800448 32.085551 0.000000 0.000000 0.000000 37.423110 1.259543 1.077194 33.498141 -5.488136 -7.620709 8.264169 55.260224 7.354076 0.000000 0.000000 0.000000 
-0.324529 0.903211 2.771397 -8.390501 3.642718 -18.344198 10.687693 -0.237148 14.598334 0.205017 -2.984159 42.095963 -6.159209 -6.765487 9.108674 0.000000 0.000000 0.000000 -5.987096 1.342488 -55.884774 18.425867 -15.417497 73.267582 -8.130197 -19.448643 7.597227 0.000000 0.000000 0.000000 -0.653628 -2.566470 42.400587 18.819839 -1.351169 -43.410510 -5.019937 3.436364 34.575055 -2.668017 4.556166 -35.387939 0.000000 0.000000 0.000000 -42.372415 0.181527 -6.277829 -28.502076 -8.980631 -3.091149 -48.637822 -71.672943 39.401050 0.000000 0.000000 0.000000 39.393356 1.641254 2.172438 32.279722 -3.562141 -7.438628 0.890240 56.601172 3.875063 0.000000 0.000000 0.000000 
-0.336119 0.908503 2.820517 -9.145997 4.611143 -19.459885 12.566390 -0.480185 12.961283 -0.257867 -3.597184 47.171965 -6.907306 -4.104459 15.845994 0.000000 0.000000 0.000000 -3.624730 2.237809 -55.083447 18.021475 -16.725933 76.961397 -9.706173 -22.630558 4.758697 0.000000 0.000000 0.000000 0.734523 -3.354183 43.347550 15.229112 -0.973549 -43.195078 -3.348544 1.422213 33.504373 -5.747631 6.044034 -34.678192 0.000000 0.000000 0.000000 -43.990194 0.200918 -5.967773 -27.396308 -8.461090 -3.106055 -47.743509 -72.112596 39.063388 0.000000 0.000000 0.000000 38.269514 2.017561 1.834366 32.630416 -3.100587 -7.196631 -4.058531 57.651701 1.328259 0.000000 0.000000 0.000000 
-0.344552 0.935000 2.859862 -9.250517 4.501188 -18.394037 12.425527 -0.220134 6.958521 -1.113787 -3.785930 53.142153 -5.096594 -2.092466 14.317273 0.000000 0.000000 0.000000 -1.594402 3.302955 -53.284825 17.981599 -17.243840 78.349525 -10.439334 -24.355581 2.897011 0.000000 0.000000 0.000000 0.837903 -3.449399 44.059201 15.513485 -0.633182 -45.446730 -3.158904 3.310883 34.339566 -2.971260 4.818843 -33.752636 0.000000 0.000000 0.000000 -43.774330 0.035387 -6.720508 -27.541469 -5.896985 -3.446932 -53.084002 -70.983179 42.439185 0.000000 0.000000 0.000000 38.290174 2.034669 2.800867 32.160728 -0.240598 -6.774587 -8.787371 61.105325 -0.980371 0.000000 0.000000 0.000000 
-0.350337 0.972494 2.893180 -8.672826 4.343672 -17.931892 10.968905 0.012564 0.056658 -3.951935 -2.599724 61.256845 -1.246740 1.939444 9.343541 0.000000 0.000000 0.000000 -1.086951 3.498235 -50.490436 17.473625 -16.447798 77.353021 -10.467198 -24.325901 4.006879 0.000000 0.000000 0.000000 -0.694752 -2.911790 44.969304 16.120157 -0.769534 -44.776137 -2.150386 3.937084 31.821621 -3.211826 5.021705 -32.100978 0.000000 0.000000 0.000000 -43.218188 1.916092 -8.646168 -28.483456 -3.597789 -3.746967 -63.190973 -69.538859 49.414272 0.000000 0.000000 0.000000 35.653123 2.513816 3.230417 33.002772 -0.212501 -6.760147 -13.690650 66.405512 -3.945091 0.000000 0.000000 0.000000 
